<?xml version="1.0" encoding="UTF-8"?><svg xmlns="http://www.w3.org/2000/svg" xmlns:xlink="http://www.w3.org/1999/xlink" version="1.1" id="Layer_1" x="0px" y="0px" viewBox="0 0 16 16" xml:space="preserve"><path d="M8 0C3.589 0 0 3.589 0 8s3.589 8 8 8 8-3.589 8-8-3.589-8-8-8zm0 14c-3.309 0-6-2.691-6-6s2.691-6 6-6 6 2.691 6 6-2.691 6-6 6z"/><path d="M11 6.5C11 5.122 9.878 4 8.5 4H6a1 1 0 0 0-1 1v7h2V9.943l.698.498c.502.36.802.942.802 1.559h2c0-1.19-.545-2.317-1.469-3.057A2.505 2.505 0 0 0 11 6.5zM8.5 7H7V6h1.5a.5.5 0 0 1 0 1z"/><metadata><rdf:RDF xmlns:rdf="http://www.w3.org/1999/02/22-rdf-syntax-ns#" xmlns:rdfs="http://www.w3.org/2000/01/rdf-schema#" xmlns:dc="http://purl.org/dc/elements/1.1/"><rdf:Description about="https://iconscout.com/legal#licenses" dc:title="registered-mark" dc:description="registered-mark" dc:publisher="Iconscout" dc:date="2018-06-20" dc:format="image/svg+xml" dc:language="en"><dc:creator><rdf:Bag><rdf:li>Those Icons</rdf:li></rdf:Bag></dc:creator></rdf:Description></rdf:RDF></metadata></svg>